<svg width="137" height="134" viewBox="0 0 137 134" fill="none" xmlns="http://www.w3.org/2000/svg">
<g clip-path="url(#clip0_4426_15)">
<path fill-rule="evenodd" clip-rule="evenodd" d="M2.32879 16.0194H30.5482L30.5109 15.5941V4.50374C30.5109 2.02832 33.4499 0 37.0614 0C40.6604 0 43.6119 2.03923 43.6119 4.50374V15.5941L43.5745 16.0194H91.6322L91.5949 15.5941V4.50374C91.5949 2.02832 94.5339 0 98.1329 0C101.732 0 104.683 2.03923 104.683 4.50374V15.5941L104.646 16.0194H134.671C135.954 16.0194 137 16.9354 137 18.0586V39.2796C137 40.4028 135.954 41.3189 134.671 41.3189H2.32879C1.04609 41.3079 0 40.3919 0 39.2687V18.0477C0 16.9245 1.04609 16.0194 2.32879 16.0194ZM0.58531 46.008H136.427C136.751 46.008 137 46.237 137 46.5096V133.487C137 133.76 136.738 133.989 136.427 133.989H0.58531C0.273975 133.989 0 133.76 0 133.487V46.5205C0 46.237 0.261522 46.008 0.58531 46.008ZM121.134 57.5345H104.073C103.04 57.5345 102.205 58.2215 102.205 59.0612V72.9541C102.205 73.7938 103.04 74.4808 104.073 74.4808H121.147C122.18 74.4808 123.027 73.7938 123.027 72.9541V59.0612C123.015 58.2215 122.168 57.5345 121.134 57.5345ZM15.243 81.7108H32.3042C33.3378 81.7108 34.1846 82.3978 34.1846 83.2375V97.1304C34.1846 97.9701 33.3378 98.6571 32.3042 98.6571H15.8283C14.7947 98.6571 13.9603 97.9701 13.9603 97.1304V82.7358C13.9603 81.8962 14.8071 81.2092 15.8283 81.2092L15.243 81.7108ZM15.243 105.898H32.3042C33.3378 105.898 34.1846 106.585 34.1846 107.425V121.318C34.1846 122.157 33.3378 122.844 32.3042 122.844H15.8158C14.7822 122.844 13.9478 122.157 13.9478 121.318V107.425C13.9478 106.585 14.7947 105.898 15.8158 105.898H15.243ZM15.243 57.5345H32.3042C33.3378 57.5345 34.1846 58.2215 34.1846 59.0612V72.9541C34.1846 73.7938 33.3378 74.4808 32.3042 74.4808H15.8158C14.7822 74.4808 13.9478 73.7938 13.9478 72.9541V59.0612C13.9478 58.2215 14.7947 57.5345 15.8158 57.5345H15.243ZM44.8572 57.5345H61.9308C62.9645 57.5345 63.7988 58.2215 63.7988 59.0612V72.9541C63.7988 73.7938 62.952 74.4808 61.9308 74.4808H44.8572C43.8236 74.4808 42.9767 73.7938 42.9767 72.9541V59.0612C42.9767 58.2215 43.8236 57.5345 44.8572 57.5345ZM44.8572 81.7108H61.9308C62.9645 81.7108 63.7988 82.3978 63.7988 83.2375V97.1304C63.7988 97.9701 62.952 98.6571 61.9308 98.6571H44.8572C43.8236 98.6571 42.9767 97.9701 42.9767 97.1304V82.7358C42.9767 81.8962 43.8236 81.2092 44.8572 81.2092V81.7108ZM44.8572 105.898H61.9308C62.9645 105.898 63.7988 106.585 63.7988 107.425V121.318C63.7988 122.157 62.952 122.844 61.9308 122.844H44.8572C43.8236 122.844 42.9767 122.157 42.9767 121.318V107.425C42.9767 106.585 43.8236 105.898 44.8572 105.898ZM74.459 57.5345H91.5326C92.5662 57.5345 93.4131 58.2215 93.4131 59.0612V72.9541C93.4131 73.7938 92.5662 74.4808 91.5326 74.4808H74.459C73.4253 74.4808 72.5785 73.7938 72.5785 72.9541V59.0612C72.5909 58.2215 73.4253 57.5345 74.459 57.5345ZM74.459 81.7108H91.5326C92.5662 81.7108 93.4131 82.3978 93.4131 83.2375V97.1304C93.4131 97.9701 92.5662 98.6571 91.5326 98.6571H74.459C73.4253 98.6571 72.5785 97.9701 72.5785 97.1304V82.7358C72.5785 81.8962 73.4253 81.2092 74.459 81.2092V81.7108ZM121.134 81.7108H104.073C103.04 81.7108 102.205 82.3978 102.205 83.2375V97.1304C102.205 97.9701 103.04 98.6571 104.073 98.6571H121.147C122.18 98.6571 123.027 97.9701 123.027 97.1304V82.7249C123.027 81.8853 122.18 81.1982 121.147 81.1982L121.134 81.7108ZM121.134 105.898H104.073C103.04 105.898 102.205 106.585 102.205 107.425V121.318C102.205 122.157 103.04 122.844 104.073 122.844H121.147C122.18 122.844 123.027 122.157 123.027 121.318V106.912C123.027 106.072 122.18 105.385 121.147 105.385L121.134 105.898ZM74.459 105.898H91.5326C92.5662 105.898 93.4131 106.585 93.4131 107.425V121.318C93.4131 122.157 92.5662 122.844 91.5326 122.844H74.459C73.4253 122.844 72.5785 122.157 72.5785 121.318V107.425C72.5909 106.585 73.4253 105.898 74.459 105.898ZM8.72984 52.0275H129.428C130.076 52.0275 130.599 52.5073 130.599 53.0526V126.955C130.599 127.501 130.051 127.98 129.428 127.98H7.57168C6.949 127.98 6.40105 127.522 6.40105 126.955V54.0667C6.40105 52.9435 7.44714 52.0275 8.72984 52.0275ZM98.1329 32.0605C101.732 32.0605 104.683 30.0213 104.683 27.5568V16.4774L104.646 16.0303H91.6322L91.5949 16.4774V27.5568C91.5949 30.0322 94.5339 32.0605 98.1329 32.0605ZM37.0614 32.0605C40.6604 32.0605 43.6119 30.0213 43.6119 27.5568V16.4774L43.5745 16.0303H30.5482L30.5109 16.4774V27.5568C30.5109 30.0322 33.4499 32.0605 37.0614 32.0605Z" fill="white"/>
</g>
<defs>
<clipPath id="clip0_4426_15">
<rect width="137" height="134" fill="white"/>
</clipPath>
</defs>
</svg>
