<svg width="260" height="253" viewBox="0 0 260 253" fill="none" xmlns="http://www.w3.org/2000/svg">
<path d="M130 0.919922C58.4247 0.919922 0.280273 57.2087 0.280273 126.5C0.280273 195.791 58.4247 252.08 130 252.08C201.576 252.08 259.72 195.791 259.72 126.5C259.72 57.2087 201.576 0.919922 130 0.919922ZM130 11.8399C195.48 11.8399 248.44 63.1103 248.44 126.5C248.44 189.89 195.48 241.16 130 241.16C64.5208 241.16 11.5603 189.89 11.5603 126.5C11.5603 63.1103 64.5208 11.8399 130 11.8399ZM132.336 41.3474C132.336 41.3474 117.707 58.8387 117.707 70.8015L122.873 86.6483C125.817 82.3786 128.221 80.1275 128.48 79.8873L132.336 76.3682L136.202 79.8873C136.462 80.1275 138.87 82.3786 141.82 86.6483L146.986 70.8015C146.986 58.8387 132.336 41.3474 132.336 41.3474ZM92.2387 47.2339L101.172 91.2232L113.334 107.838C114.924 101.766 117.061 96.7095 119.238 92.6309C111.912 58.4895 92.2387 47.2339 92.2387 47.2339ZM172.454 47.2446C172.454 47.2446 152.782 58.4895 145.455 92.6309C147.632 96.704 149.769 101.766 151.36 107.838L163.521 91.2232L172.454 47.2446ZM195.653 78.0638C171.266 78.0638 155.892 112.018 153.309 118.161C153.71 121.431 153.948 124.888 153.948 128.59C153.948 135.437 150.874 152.53 147.405 169.615L161.141 152.606C161.141 152.606 169.979 124.716 172.454 115.057C174.925 105.393 189.394 86.3438 198.881 83.865C207.341 81.6592 212.375 84.9634 212.375 84.9634C212.375 84.9634 208.107 78.0638 195.653 78.0638ZM69.0288 78.0744C56.5757 78.0744 52.3071 84.9741 52.3071 84.9741C52.3071 84.9741 57.3412 81.6537 65.8012 83.865C75.2877 86.3438 89.7574 105.393 92.2277 115.057C94.698 124.722 103.541 152.606 103.541 152.606L117.277 169.615C113.809 152.536 110.734 135.442 110.734 128.59C110.734 124.894 110.978 121.426 111.373 118.161C108.79 112.018 93.4161 78.0744 69.0288 78.0744ZM132.347 83.865C132.347 83.865 116.385 98.4072 116.385 128.59C116.385 143.496 132.347 212.324 132.347 212.324C132.347 212.324 148.308 143.496 148.308 128.59C148.308 98.4072 132.347 83.865 132.347 83.865ZM50.7869 107.603C45.2654 133.888 90.5203 134.295 90.5203 134.295C83.1037 105.215 50.7869 107.603 50.7869 107.603ZM213.906 107.603C213.906 107.603 181.579 105.215 174.162 134.295C174.162 134.295 219.428 133.888 213.906 107.603ZM52.2189 137.335C43.4232 136.998 37.8546 138.348 37.8546 138.348C94.8862 149.388 109.533 208.645 109.533 208.645L126.839 213.519C126.534 212.208 123.074 197.239 119.436 180.002C106.961 156.081 74.9503 140.521 62.0008 138.348C58.4363 137.75 55.1509 137.447 52.2189 137.335ZM212.474 137.335C209.542 137.447 206.257 137.748 202.692 138.348C189.743 140.521 157.733 156.081 145.257 180.002C141.619 197.239 138.148 212.208 137.843 213.519L155.16 208.645C155.16 208.645 169.801 149.388 226.839 138.348C226.839 138.348 221.27 136.998 212.474 137.335Z" fill="white"/>
</svg>
