<svg width="287" height="252" viewBox="0 0 287 252" fill="none" xmlns="http://www.w3.org/2000/svg">
<path d="M226.75 0H60.25C47.9837 0 36.2199 4.72695 27.5463 13.141C18.8728 21.555 14 32.9668 14 44.8661V206.384C14 218.283 18.8728 229.695 27.5463 238.109C36.2199 246.523 47.9837 251.25 60.25 251.25H226.75C239.016 251.25 250.78 246.523 259.454 238.109C268.127 229.695 273 218.283 273 206.384V44.8661C273 32.9668 268.127 21.555 259.454 13.141C250.78 4.72695 239.016 0 226.75 0ZM60.25 17.9464H226.75C234.11 17.9464 241.168 20.7826 246.372 25.831C251.576 30.8794 254.5 37.7265 254.5 44.8661V95.0263L237.11 78.1567C231.907 73.1155 224.854 70.284 217.5 70.284C210.146 70.284 203.093 73.1155 197.89 78.1567L124.353 149.942L96.6025 128.227C91.6442 124.291 85.4345 122.14 79.0275 122.14C72.6204 122.14 66.4108 124.291 61.4525 128.227L32.5 151.288V44.8661C32.5 37.7265 35.4237 30.8794 40.6278 25.831C45.8319 20.7826 52.8902 17.9464 60.25 17.9464ZM226.75 233.304H60.25C52.8902 233.304 45.8319 230.467 40.6278 225.419C35.4237 220.371 32.5 213.523 32.5 206.384V174.708L73.015 141.867C74.6701 140.547 76.7462 139.825 78.8888 139.825C81.0313 139.825 83.1074 140.547 84.7625 141.867L119.265 168.786C121.037 170.165 123.271 170.864 125.54 170.748C127.809 170.632 129.954 169.71 131.568 168.158L210.933 91.0781C211.792 90.2371 212.815 89.5695 213.943 89.114C215.07 88.6584 216.279 88.4239 217.5 88.4239C218.721 88.4239 219.93 88.6584 221.057 89.114C222.185 89.5695 223.208 90.2371 224.067 91.0781L254.5 120.331V206.384C254.5 213.523 251.576 220.371 246.372 225.419C241.168 230.467 234.11 233.304 226.75 233.304Z" fill="white"/>
<path d="M88 98.7055C93.4884 98.7055 98.8536 97.1267 103.417 94.1687C107.981 91.2108 111.537 87.0065 113.638 82.0876C115.738 77.1686 116.288 71.756 115.217 66.5341C114.146 61.3122 111.503 56.5156 107.622 52.7508C103.741 48.986 98.7967 46.4222 93.4138 45.3835C88.0308 44.3448 82.4512 44.8779 77.3805 46.9154C72.3099 48.9528 67.9759 52.4032 64.9267 56.8301C61.8775 61.257 60.25 66.4617 60.25 71.7859C60.25 78.9254 63.1737 85.7725 68.3778 90.8209C73.5819 95.8693 80.6402 98.7055 88 98.7055ZM88 62.8126C89.8295 62.8126 91.6179 63.3389 93.139 64.3249C94.6602 65.3109 95.8458 66.7123 96.5459 68.352C97.246 69.9916 97.4292 71.7958 97.0723 73.5365C96.7154 75.2771 95.8344 76.876 94.5407 78.1309C93.2471 79.3858 91.5989 80.2404 89.8046 80.5867C88.0103 80.9329 86.1504 80.7552 84.4602 80.076C82.77 79.3969 81.3253 78.2468 80.3089 76.7711C79.2925 75.2955 78.75 73.5606 78.75 71.7859C78.75 69.406 79.7246 67.1236 81.4593 65.4408C83.194 63.758 85.5467 62.8126 88 62.8126Z" fill="white"/>
</svg>
