<svg width="281" height="222" viewBox="0 0 281 222" fill="none" xmlns="http://www.w3.org/2000/svg">
<g clip-path="url(#clip0_4426_13)">
<path fill-rule="evenodd" clip-rule="evenodd" d="M198.311 110.45C204.235 124.985 205.33 140.14 203.923 155.441C203.322 161.976 202.263 168.552 200.926 175.129C200.491 169.121 199.859 163.136 199.033 157.185C197.865 148.777 196.303 140.452 194.352 132.248C194.174 131.308 193.714 130.477 193.056 129.904C192.399 129.332 191.589 129.059 190.774 129.133C189.876 129.217 189.044 129.716 188.459 130.522C187.874 131.328 187.584 132.374 187.654 133.431C188.56 146.44 188.765 159.167 188.308 171.694C188.133 176.518 187.859 181.336 187.487 186.144C187.341 177.315 187.165 168.306 185.966 159.403C185.858 158.611 185.551 157.875 185.083 157.293C184.615 156.71 184.008 156.306 183.343 156.136C182.677 155.965 181.983 156.034 181.351 156.335C180.72 156.636 180.18 157.154 179.802 157.821C175.542 164.852 173.427 173.093 172.801 182.158C172.225 190.538 172.931 199.65 174.379 209.17H153.889L153.807 203C153.502 180.701 152.8 129.351 156.478 122.415C158.741 118.147 160.037 118.18 164.036 118.279L166.807 118.332C167.348 118.331 167.866 118.078 168.249 117.628C168.631 117.178 168.846 116.567 168.846 115.931V102.076H169.547C170.064 102.075 170.575 101.953 171.052 101.719C171.529 101.484 171.962 101.141 172.325 100.709C172.69 100.281 172.98 99.7727 173.178 99.2129C173.376 98.653 173.478 98.0527 173.479 97.4462V89.9462C173.478 89.3377 173.375 88.7354 173.176 88.1739C172.977 87.6124 172.685 87.1027 172.318 86.6742C171.955 86.2445 171.523 85.9034 171.048 85.6703C170.572 85.4372 170.062 85.3167 169.547 85.3157H110.721C110.204 85.3158 109.693 85.4358 109.216 85.6689C108.739 85.902 108.306 86.2437 107.942 86.6742C107.576 87.1035 107.286 87.6134 107.088 88.1749C106.891 88.7364 106.789 89.3383 106.789 89.9462V97.4462C106.789 98.6386 107.181 99.7346 107.82 100.558L107.942 100.718C108.673 101.582 109.665 102.07 110.701 102.076V115.955C110.701 116.591 110.916 117.202 111.298 117.652C111.681 118.102 112.199 118.355 112.74 118.356C113.438 118.356 114.542 118.326 115.524 118.303C119.268 118.211 120.316 118.184 122.622 121.885C126.931 128.797 126.118 179.995 125.758 202.664L125.66 209.17H106.223C107.671 199.65 108.378 190.538 107.801 182.158C107.176 173.093 105.061 164.852 100.801 157.821C100.423 157.153 99.8832 156.634 99.2515 156.333C98.6198 156.032 97.9256 155.962 97.2597 156.133C96.5938 156.304 95.9872 156.708 95.5192 157.291C95.0513 157.875 94.7436 158.611 94.6366 159.403C93.438 168.306 93.2613 177.315 93.1153 186.144C92.7436 181.336 92.4696 176.518 92.2937 171.694C91.8376 159.167 92.0423 146.44 92.9479 133.431C93.018 132.374 92.7288 131.328 92.1438 130.522C91.5588 129.716 90.7259 129.216 89.8283 129.133C89.0135 129.059 88.2032 129.333 87.5459 129.905C86.8886 130.477 86.4285 131.309 86.25 132.248C84.3 140.452 82.7375 148.777 81.5696 157.185C80.7433 163.136 80.1119 169.121 79.6767 175.129C78.3392 168.552 77.2805 161.976 76.6795 155.441C75.2723 140.14 76.3672 124.985 82.2918 110.45C82.6469 109.572 82.7166 108.57 82.4878 107.635C82.2591 106.7 81.7476 105.895 81.0499 105.374C80.3522 104.852 79.5165 104.649 78.7004 104.803C77.8843 104.957 77.1442 105.457 76.6197 106.209C70.1282 115.538 65.917 128.097 64.0065 143.904C62.1498 159.274 62.4649 177.801 64.973 199.507L64.9999 199.757L66.5992 209.17H57.1116L59.1379 197.148C62.1811 170.811 62.5642 148.344 60.3129 129.714C58.0084 110.639 52.9372 95.4964 45.1345 84.2565C44.1626 82.8754 42.4831 82.3856 41.0474 83.1934C40.2379 83.6494 39.6153 84.4654 39.3165 85.4618C39.0178 86.4582 39.0673 87.5536 39.4542 88.507C46.7322 106.363 48.079 124.962 46.3524 143.727C45.4589 153.443 43.7383 163.229 41.5858 172.994C41.0711 163.917 40.1894 154.874 38.9437 145.896C37.5241 135.68 35.6241 125.564 33.2524 115.597C33.0737 114.658 32.6136 113.826 31.9564 113.254C31.2991 112.682 30.4889 112.408 29.674 112.482C28.7764 112.565 27.9436 113.065 27.3586 113.87C26.7736 114.676 26.4844 115.723 26.5545 116.78C27.6598 132.637 27.9101 148.16 27.3536 163.448C26.8843 176.339 25.8399 189.118 24.2516 201.845C23.0272 197.749 23.2275 194.709 23.5222 190.22C23.6331 188.531 23.7588 186.651 23.8449 184.084C24.042 178.285 23.9712 172.44 23.6622 166.632C23.3428 160.632 22.761 154.589 21.9537 148.589C21.8467 147.797 21.539 147.061 21.0711 146.477C20.6031 145.894 19.9965 145.49 19.3306 145.319C18.6647 145.148 17.9705 145.218 17.3388 145.519C16.7071 145.82 16.1672 146.339 15.7898 147.007C10.6802 155.429 8.14296 165.321 7.39217 176.217C6.68967 186.426 7.56505 197.547 9.34599 209.17H2.5751C1.16077 209.17 0 210.538 0 212.202V222H281V211.426C281 210.192 280.137 209.17 279.085 209.17H271.257C273.038 197.547 273.913 186.426 273.21 176.217C272.459 165.321 269.922 155.429 264.812 147.007C264.435 146.339 263.895 145.821 263.263 145.52C262.632 145.219 261.937 145.15 261.272 145.32C260.606 145.491 259.999 145.895 259.531 146.478C259.063 147.061 258.756 147.797 258.648 148.589C257.841 154.589 257.26 160.632 256.94 166.632C256.631 172.44 256.561 178.285 256.758 184.084C256.844 186.651 256.969 188.531 257.08 190.22C257.375 194.709 257.575 197.749 256.351 201.845C254.763 189.118 253.718 176.339 253.249 163.448C252.693 148.16 252.943 132.637 254.048 116.78C254.118 115.723 253.829 114.677 253.244 113.871C252.659 113.065 251.826 112.565 250.929 112.482C250.114 112.408 249.304 112.682 248.646 113.254C247.989 113.826 247.529 114.658 247.35 115.597C244.979 125.564 243.079 135.68 241.659 145.896C240.413 154.874 239.532 163.917 239.017 172.994C236.864 163.229 235.144 153.443 234.25 143.727C232.524 124.962 233.87 106.363 241.148 88.507C241.535 87.5535 241.585 86.4582 241.286 85.4619C240.987 84.4655 240.365 83.6496 239.555 83.1934C238.12 82.3856 236.44 82.8754 235.468 84.2565C227.665 95.4964 222.594 110.639 220.289 129.714C218.038 148.344 218.421 170.811 221.464 197.148L223.491 209.17H214.003L215.603 199.757L215.63 199.507C218.138 177.801 218.453 159.274 216.596 143.904C214.686 128.097 210.474 115.538 203.983 106.209C203.458 105.457 202.718 104.957 201.902 104.803C201.086 104.649 200.25 104.852 199.553 105.374C198.855 105.895 198.344 106.7 198.115 107.635C197.886 108.57 197.956 109.572 198.311 110.45ZM71.4042 25.7596C67.8094 26.6935 68.9092 32.9745 72.5013 32.1777C74.2872 31.788 76.0242 31.406 77.8233 31.0842C81.4527 30.403 80.6646 24.0463 77.0346 24.6034C75.1324 24.9266 73.29 25.3486 71.4042 25.7596ZM222.962 13.3105C226.191 15.3683 228.85 9.74121 225.674 7.59431C223.922 6.43102 222.129 5.48295 220.254 4.63375C216.807 3.15832 214.884 9.21644 218.304 10.7662C219.906 11.4816 221.469 12.3179 222.962 13.3105ZM208.084 7.58978C208.789 7.73038 209.512 7.54489 210.102 7.07212C212.173 5.40087 211.474 1.63895 209.004 1.13357C207.102 0.751624 205.202 0.476961 203.281 0.261754C199.605 -0.0478086 199.149 6.34895 202.782 6.78324C204.553 6.96807 206.332 7.23757 208.084 7.58978ZM192.07 6.54218C195.766 6.23133 195.416 -0.180293 191.778 0.00389279C189.891 0.100833 187.913 0.306346 186.04 0.592643C182.371 1.21952 183.118 7.58138 186.732 7.08763C188.492 6.83236 190.3 6.6346 192.07 6.54218ZM176.255 9.54409C179.762 8.31166 178.277 2.1243 174.728 3.24751C172.871 3.85979 171.036 4.56354 169.229 5.35693C165.813 6.90409 167.733 12.9635 171.182 11.4868C172.842 10.7474 174.547 10.1102 176.255 9.54409ZM161.624 16.8715C164.741 14.5695 161.916 9.09106 158.756 11.2619C157.097 12.4142 155.445 13.7364 153.904 15.0968C151.003 17.7679 154.296 22.8727 157.246 20.3297C158.65 19.0826 160.112 17.9281 161.624 16.8715ZM149.55 28.7486C151.917 25.4662 147.775 21.2293 145.341 24.4696C144.717 25.3291 144.111 26.2057 143.522 27.0987C142.928 26.2068 142.317 25.3303 141.69 24.4696C139.256 21.2293 135.115 25.4662 137.481 28.7486C138.623 30.3158 139.697 31.9494 140.699 33.6434C141.455 34.912 142.541 35.2507 143.515 34.9896C144.517 35.2216 145.627 34.8261 146.332 33.6434C147.334 31.9491 148.408 30.3155 149.55 28.7486ZM61.3579 7.59366C58.1807 9.74056 60.8403 15.367 64.0696 13.3092C65.5642 12.3217 67.1213 11.4715 68.727 10.7662C72.1478 9.21644 70.2237 3.15832 66.7776 4.63375C64.8995 5.48166 63.113 6.43232 61.3579 7.59366ZM78.0258 1.13228C77.3162 1.27769 76.7575 1.68031 76.3025 2.33433C74.746 4.71583 76.4358 8.06026 78.9462 7.58849C80.7118 7.24985 82.4653 6.97066 84.2484 6.78324C87.8811 6.34895 87.425 -0.0478086 83.749 0.261754C81.8335 0.4762 79.9247 0.766539 78.0258 1.13228ZM95.253 0.00389279C91.6148 -0.180293 91.2646 6.23133 94.961 6.54218C96.7464 6.63875 98.5277 6.82115 100.301 7.08892C103.914 7.58267 104.663 1.21823 100.99 0.59135C99.1013 0.31604 97.1541 0.102772 95.253 0.00389279ZM112.305 3.2488C108.752 2.12559 107.271 8.31166 110.776 9.54345C112.487 10.1128 114.185 10.75 115.85 11.4868C119.297 12.9622 121.219 6.90409 117.802 5.35693C115.994 4.56629 114.16 3.86299 112.305 3.2488ZM128.276 11.2632C125.111 9.08977 122.286 14.5662 125.406 16.8702C126.918 17.9281 128.38 19.083 129.785 20.3297C132.735 22.8727 136.028 17.7679 133.127 15.0968C131.59 13.7377 129.932 12.4135 128.276 11.2632ZM212.918 57.978C216.492 58.473 217.181 52.2475 213.646 51.6355C211.772 51.3343 209.945 51.1443 208.063 50.9569C204.509 50.71 204.08 56.9679 207.69 57.3433C209.419 57.4674 211.201 57.7027 212.918 57.978ZM197.267 57.4112C200.81 56.9814 200.378 50.7236 196.766 51.0371C194.881 51.2355 192.992 51.5282 191.131 51.9405C190.444 52.0904 189.834 52.5477 189.427 53.2163C188.004 55.5713 189.716 58.7425 192.134 58.232C193.807 57.8436 195.568 57.5896 197.267 57.4112ZM182.334 61.7011C185.61 59.9581 183.44 54.1779 180.157 55.835C178.389 56.7279 176.672 57.7548 175.017 58.9092C171.937 61.1602 174.7 66.5113 177.786 64.4174C179.139 63.4163 180.862 62.4456 182.334 61.7011ZM169.751 71.7286C172.249 68.7267 168.467 64.2532 165.896 67.2177C164.539 68.8262 163.275 70.4755 162.078 72.2514C159.877 75.5836 164.076 79.509 166.332 76.235C167.402 74.6616 168.544 73.1572 169.751 71.7286ZM71.2297 51.7744C67.6222 52.4517 68.3922 58.8117 72.0447 58.2501C73.8415 57.9625 75.5813 57.7033 77.3892 57.5127C81.0498 57.0822 80.5751 50.6816 76.9287 50.9886C75.004 51.1812 73.1412 51.4675 71.2297 51.7744ZM88.4782 50.8774C84.7753 50.628 84.429 57.0396 88.0551 57.406C89.8141 57.5489 91.5725 57.8125 93.3118 58.157C96.9252 58.8356 97.8659 52.5067 94.2546 51.7059C92.3427 51.3117 90.4146 51.0352 88.4782 50.8774ZM105.522 55.5189C102.114 53.9142 100.013 59.8263 103.373 61.557C104.967 62.3261 106.536 63.2664 108.03 64.2707C111.243 66.3801 113.962 60.8274 110.824 58.6107C109.148 57.4642 107.316 56.3856 105.522 55.5189ZM120.197 67.0477C117.636 64.0936 113.744 68.4559 116.229 71.6317C117.499 73.1569 118.634 74.6084 119.769 76.2803C122.091 79.635 126.373 75.5978 124.121 72.2062C122.901 70.3963 121.591 68.6737 120.197 67.0477ZM209.678 32.1777C213.27 32.9745 214.37 26.6935 210.775 25.7596C208.898 25.3344 207.039 24.9227 205.144 24.6034C201.514 24.0463 200.727 30.403 204.356 31.0842C206.15 31.4009 207.897 31.7744 209.678 32.1777ZM193.659 30.0702C197.371 30.0075 197.323 23.5862 193.69 23.5248C191.758 23.5112 189.825 23.5733 187.899 23.7549C184.412 24.1064 184.549 30.2311 188.127 30.2919C190.004 30.1962 191.766 30.0586 193.659 30.0702ZM177.99 32.453C181.486 31.163 179.928 25.0015 176.396 26.181C174.513 26.8297 172.665 27.612 170.862 28.5237C170.269 28.8235 169.784 29.3583 169.491 30.0353C168.321 32.791 170.665 35.727 173.066 34.5346C174.67 33.7226 176.314 33.0274 177.99 32.453ZM164.117 40.7478C166.978 38.0516 163.651 32.9778 160.707 35.5783C159.162 36.9536 157.662 38.5596 156.282 40.1591C155.745 40.8034 155.471 41.5667 155.46 42.4701C155.46 45.3874 158.43 46.8486 160.197 44.8077C161.407 43.3969 162.758 41.957 164.117 40.7478ZM153.588 54.4196C155.533 50.7682 150.973 47.2719 148.921 50.8639C147.868 52.7705 146.881 54.7271 145.964 56.7287C144.286 60.5546 149.078 63.596 150.871 59.8082C151.709 57.9661 152.616 56.1682 153.588 54.4196ZM146.481 71.3331C147.69 67.25 142.58 65.0443 141.261 69.0808L141.089 69.6341L140.918 69.0808C139.599 65.0443 134.489 67.25 135.698 71.3331C136.321 73.3298 136.902 75.3441 137.441 77.3744C138.052 79.5336 139.75 80.0306 141.089 79.4308C142.429 80.0306 144.127 79.5336 144.738 77.3744C145.277 75.344 145.858 73.3297 146.481 71.3331ZM88.4892 23.5248C84.8565 23.5862 84.8082 30.0075 88.5199 30.0702C90.2877 30.0586 92.078 30.109 93.8397 30.2809C95.3199 30.4056 96.6212 29.1855 96.816 27.4457C96.8655 27.0055 96.8383 26.558 96.7362 26.1305C96.6341 25.7031 96.4591 25.3046 96.222 24.9593C95.9849 24.614 95.6906 24.3291 95.357 24.1221C95.0234 23.915 94.6575 23.7901 94.2815 23.7549C92.3535 23.5733 90.4233 23.5112 88.4892 23.5248ZM105.784 26.181C102.25 25.0002 100.692 31.163 104.188 32.453C105.864 33.0259 107.509 33.7207 109.112 34.5333C112.468 36.2 114.69 30.3242 111.318 28.525C109.517 27.6086 107.669 26.8257 105.784 26.181ZM121.472 35.5783C118.529 32.9778 115.201 38.0516 118.062 40.7478C119.421 41.957 120.772 43.3969 121.982 44.8077C124.54 47.7592 128.437 43.4014 125.948 40.2192C124.55 38.5503 123.055 36.9995 121.472 35.5783ZM133.258 50.8639C131.207 47.2719 126.646 50.7682 128.59 54.4196C129.563 56.1679 130.47 57.9658 131.308 59.8082C133.102 63.596 137.893 60.5546 136.216 56.7287C135.298 54.7272 134.311 52.7707 133.258 50.8639ZM149.82 209.17H141.56V126.96C141.559 126.402 141.371 125.867 141.036 125.472C140.701 125.078 140.247 124.856 139.773 124.856C139.299 124.856 138.845 125.078 138.51 125.473C138.174 125.867 137.986 126.402 137.985 126.96V209.17H129.73L129.82 202.739C130.186 179.574 131.016 127.257 125.902 119.052C122.35 113.348 120.84 113.387 115.444 113.52L114.779 113.536V102.373H164.768V113.512L164.117 113.497C158.371 113.353 156.509 113.306 153.023 119.882C148.719 128 149.436 180.343 149.746 203.075L149.82 209.17ZM169.547 89.5249H110.721C110.626 89.5262 110.536 89.5711 110.469 89.6498C110.402 89.7285 110.364 89.8349 110.363 89.9462V97.4462C110.363 97.5431 110.391 97.6323 110.434 97.7021L110.469 97.7422C110.536 97.8209 110.626 97.8657 110.721 97.8669H111.759C112.059 97.6722 112.397 97.5703 112.74 97.5709H166.807C167.162 97.5709 167.497 97.6782 167.788 97.8669H169.547C169.642 97.8671 169.734 97.8238 169.802 97.7461C169.868 97.6656 169.905 97.5581 169.905 97.4462V89.9462C169.905 89.8344 169.868 89.7268 169.803 89.6457C169.734 89.5687 169.642 89.5255 169.547 89.5249ZM177.823 209.17H186.541C183.087 200.988 184.303 198.099 184.142 188.548C183.981 179.121 183.891 169.453 182.621 160.029C174.89 172.689 174.846 190.043 177.823 209.17ZM188.402 209.17H210.539L212.272 198.976C217.213 156.235 213.519 126.237 201.363 108.732C213.84 139.339 206.008 172.174 197.443 203.629L198.044 184.109C197.29 166.027 194.853 149.1 191.039 133.119C192.854 159.18 191.872 184.299 188.402 209.17ZM226.954 209.17H253.891C249.652 178.851 248.447 148.237 250.664 116.468C246.021 135.917 243.053 156.516 242.139 178.525L242.869 202.28C232.445 164.001 222.911 124.04 238.095 86.7879C223.304 108.092 218.81 144.602 224.822 196.617L226.954 209.17ZM257.165 209.17H267.812C271.454 185.836 271.422 164.655 261.993 149.215C260.448 160.687 259.752 172.458 260.142 183.928C260.527 195.263 262.188 198.656 257.165 209.17ZM12.791 209.17H23.4372C18.4143 198.656 20.0756 195.263 20.4603 183.928C20.8505 172.458 20.1546 160.687 18.6097 149.215C9.18025 164.655 9.14896 185.836 12.791 209.17ZM26.7115 209.17H53.649L55.7807 196.617C61.792 144.602 57.2982 108.092 42.5067 86.7879C57.6906 124.04 48.158 164.001 37.7336 202.28L38.4641 178.525C37.5492 156.516 34.5817 135.917 29.9391 116.468C32.1553 148.237 30.9506 178.851 26.7115 209.17ZM70.0639 209.17H92.2004C88.7307 184.299 87.7488 159.18 89.5638 133.119C85.75 149.1 83.3127 166.027 82.5586 184.109L83.1595 203.629C74.594 172.174 66.7622 139.339 79.2393 108.732C67.0827 126.237 63.3896 156.235 68.3307 198.976L70.0639 209.17ZM94.0615 209.17H102.78C105.756 190.043 105.712 172.689 97.9812 160.029C96.7117 169.453 96.6212 179.121 96.4609 188.548C96.2996 198.099 97.5158 200.988 94.0615 209.17Z" fill="white"/>
</g>
<defs>
<clipPath id="clip0_4426_13">
<rect width="281" height="222" fill="white"/>
</clipPath>
</defs>
</svg>
