<svg width="123" height="119" viewBox="0 0 123 119" fill="none" xmlns="http://www.w3.org/2000/svg">
<g clip-path="url(#clip0_4428_21)">
<path fill-rule="evenodd" clip-rule="evenodd" d="M52.79 0C49.82 29.02 37.95 47.18 14.48 50.87C18.62 45.72 18.35 37.37 19.41 30.73C16.72 38.21 13.73 45.39 9.58 51.41C8.17 51.51 6.72 51.56 5.24 51.56C8.15 45.45 9.84 39.33 10.51 33.22C8.12 39.85 5.46 46.21 1.72 51.49C1.16 51.46 0.59 51.43 0.01 51.39V0.02H52.8V0H52.79ZM110.74 62.08H117.62C114.51 68.42 112.71 74.77 112.02 81.11C114.52 74.16 117.33 67.5 121.37 62.08H122.84C122.84 106.55 121.6 116.93 120.41 118.13C119.05 119.5 109.38 118.04 94.91 118.13C92.16 102.72 92.09 72.52 110.74 62.08ZM27.84 118.12C14.63 118.55 4.11 118.12 0.03 118.12V62.08H1.28L1.06 62.19C5.14 67.63 7.97 74.33 10.49 81.34C9.79 74.92 7.96 68.5 4.78 62.09H10.98C29.36 68.79 33.04 98.94 27.84 118.12ZM111.45 53.79H118.41L118.44 53.85L118.56 53.79H122.88V59.83H111.46V53.79H111.45ZM0 53.79H3.97L4.09 53.85L4.12 53.79H11.43V59.83H0V53.79ZM122.88 0.02V51.39C122.21 51.47 121.54 51.52 120.87 51.57C117.1 46.27 114.42 39.88 112.02 33.22C112.69 39.38 114.41 45.54 117.36 51.71C115.9 51.71 114.45 51.65 113.02 51.52C108.84 45.47 105.83 38.25 103.12 30.73C104.17 37.33 103.91 45.63 107.98 50.78C84.5 46.08 67.25 24.11 67.25 0.02H122.88Z" fill="white"/>
</g>
<defs>
<clipPath id="clip0_4428_21">
<rect width="122.88" height="118.71" fill="white"/>
</clipPath>
</defs>
</svg>
