<svg width="558" height="551" viewBox="0 0 558 551" fill="none" xmlns="http://www.w3.org/2000/svg">
<g clip-path="url(#clip0_4426_11)">
<path fill-rule="evenodd" clip-rule="evenodd" d="M478.267 355.415H422.957C410.653 355.415 400.594 367.775 400.594 382.863V402.954H420.887C431.099 402.954 440.373 408.063 447.087 416.303C448.362 417.868 449.55 419.553 450.629 421.346C451.708 419.58 452.874 417.922 454.138 416.37L454.225 416.263C460.96 408.05 470.202 402.954 480.327 402.954H500.62V382.863C500.62 367.761 490.56 355.415 478.267 355.415ZM50.2745 1.6185C125.79 13.2423 201.12 18.9539 276.264 18.9137C351.409 18.8602 426.75 13.0417 502.265 1.6185L512.815 0.0267515V336.689L502.265 335.11C426.739 323.781 351.398 317.922 276.264 317.815C200.945 317.722 125.626 323.366 50.3072 335.057L39.7139 336.702V0L50.2745 1.6185ZM276.264 41.9339C203.528 41.9741 130.956 36.7574 58.5464 26.1368V310.605C131.119 299.878 203.703 294.701 276.264 294.795C349.012 294.902 421.584 300.266 493.993 310.632V26.1101C421.584 36.5701 349.012 41.8804 276.264 41.9339ZM480.327 421.011H535.636C547.941 421.011 558 433.358 558 448.446V551H457.963V448.446C457.963 433.358 468.023 421.011 480.327 421.011ZM192.085 421.011H136.764C124.471 421.011 114.412 433.358 114.412 448.446V551H214.438V448.446C214.438 433.358 204.368 421.011 192.085 421.011ZM22.3636 421.011H77.6732C89.9666 421.011 100.037 433.358 100.037 448.446V551H0V448.446C0 433.358 10.0593 421.011 22.3636 421.011ZM251.176 421.011H306.486C318.779 421.011 328.849 433.358 328.849 448.446V551H228.813V448.446C228.813 433.358 238.872 421.011 251.176 421.011ZM420.887 421.011H365.577C353.284 421.011 343.224 433.358 343.224 448.446V551H443.25V448.446C443.25 433.358 433.18 421.011 420.887 421.011ZM79.733 355.415H135.043C147.347 355.415 157.406 367.775 157.406 382.863V402.954H136.764C126.564 402.954 117.289 408.063 110.576 416.303C109.371 417.782 108.249 419.359 107.219 421.025C106.194 419.366 105.072 417.774 103.862 416.303C97.1487 408.063 87.885 402.954 77.6732 402.954H57.3694V382.863C57.3694 367.761 67.4395 355.415 79.733 355.415ZM249.454 355.415H194.145C181.84 355.415 171.781 367.775 171.781 382.863V402.954H192.085C202.286 402.954 211.56 408.063 218.274 416.303C219.473 417.774 220.595 419.353 221.62 421.025C222.655 419.353 223.778 417.774 224.976 416.303C231.69 408.063 240.964 402.954 251.176 402.954H271.807V382.863C271.807 367.761 261.748 355.415 249.454 355.415ZM308.546 355.415H363.855C376.16 355.415 386.219 367.775 386.219 382.863V402.954H365.577C355.376 402.954 346.102 408.063 339.388 416.303C338.183 417.782 337.062 419.359 336.032 421.025C335.007 419.366 333.885 417.774 332.675 416.303C325.961 408.063 316.698 402.954 306.486 402.954H286.182V382.863C286.182 367.761 296.252 355.415 308.546 355.415Z" fill="white"/>
</g>
<defs>
<clipPath id="clip0_4426_11">
<rect width="558" height="551" fill="white"/>
</clipPath>
</defs>
</svg>
