<svg width="132" height="123" viewBox="0 0 132 123" fill="none" xmlns="http://www.w3.org/2000/svg">
<g clip-path="url(#clip0_4427_18)">
<path fill-rule="evenodd" clip-rule="evenodd" d="M131.967 39.9888V121.318C132.011 121.538 131.989 121.759 131.923 121.969C131.847 122.179 131.727 122.389 131.541 122.559C131.399 122.699 131.224 122.8 131.038 122.87C130.852 122.94 130.655 122.98 130.447 122.98H130.415H1.88056C1.64002 123.02 1.39949 123.01 1.15895 122.96C0.918413 122.9 0.68881 122.78 0.50294 122.619C0.47014 122.589 0.426406 122.549 0.393606 122.519C0.360805 122.489 0.328005 122.449 0.306138 122.409C0.207736 122.289 0.131202 122.159 0.0765344 122.009C0.021867 121.849 0 121.708 0 121.548V39.7485C0 39.3582 0.174936 38.9978 0.459206 38.7476C0.743477 38.4873 1.12615 38.3272 1.55256 38.3272H39.8088C39.8416 38.197 39.9072 38.0669 39.9838 37.9468L62.7692 6.08569C62.2225 5.44507 61.8945 4.63428 61.8945 3.76343C61.8945 1.69141 63.7313 0.00976562 65.9945 0.00976562C68.2578 0.00976562 70.1055 1.69141 70.1055 3.76343C70.1055 4.64429 69.7775 5.44507 69.2308 6.08569L92.0053 37.9368C92.0928 38.0569 92.1474 38.187 92.1802 38.3171H130.24C130.469 38.2871 130.71 38.3071 130.929 38.3772L130.961 38.3872C131.18 38.4573 131.377 38.5674 131.541 38.7175L131.563 38.7376C131.738 38.9077 131.869 39.1079 131.934 39.3181C132 39.5383 132.011 39.7686 131.967 39.9888ZM29.6516 70.5586L13.7871 108.886V51.2498H117.71V103.411C110.013 102.79 109.652 99.707 107.629 94.522C102.972 82.5903 102.523 80.8386 97.4392 91.519C94.9136 96.8342 92.3661 99.0063 89.8733 99.0564C86.1887 99.1265 82.6244 94.542 79.3881 88.5662C68.87 69.1372 76.0205 67.3054 62.791 80.9187C58.3411 85.5032 54.9517 87.0447 52.3277 86.6443C39.4152 84.7224 44.4556 36.2751 29.6516 70.5586ZM42.8483 38.3272H89.1517L67.0332 7.39697C66.7052 7.47705 66.3553 7.51709 65.9945 7.51709C65.6337 7.51709 65.2839 7.47705 64.9558 7.39697L42.8483 38.3272ZM93.9077 57.1555C89.3375 57.1555 85.6311 60.5488 85.6311 64.7329C85.6311 68.917 89.3375 72.3103 93.9077 72.3103C98.4779 72.3103 102.184 68.917 102.184 64.7329C102.184 60.5388 98.4779 57.1555 93.9077 57.1555ZM12.814 112.9L5.23714 120.137H126.686L118.77 112.9H12.814ZM3.10511 118.065L10.6711 110.848V50.509L3.10511 43.272V118.065ZM5.19341 41.1699L12.7594 48.407H118.781L126.686 41.1699H5.19341ZM120.826 110.768L128.862 118.115V43.1919L120.826 50.5491V110.768Z" fill="white"/>
</g>
<defs>
<clipPath id="clip0_4427_18">
<rect width="132" height="123" fill="white"/>
</clipPath>
</defs>
</svg>
